<svg width="42" height="42" viewBox="0 0 42 42" fill="none" xmlns="http://www.w3.org/2000/svg">
<path d="M41.634 8.33496C41.488 8.16025 41.3054 8.01972 41.0991 7.9233C40.8929 7.82688 40.6679 7.77693 40.4402 7.77697H9.07572L8.12499 2.55473C7.99477 1.83796 7.61711 1.18962 7.05787 0.722756C6.49862 0.255888 5.79326 0.000105289 5.06475 0H1.55539C1.14288 0 0.747257 0.163871 0.455564 0.455564C0.163871 0.747257 0 1.14288 0 1.55539C0 1.96791 0.163871 2.36353 0.455564 2.65522C0.747257 2.94692 1.14288 3.11079 1.55539 3.11079H5.05503L10.0245 30.3866C10.1709 31.1955 10.5284 31.9514 11.0608 32.5777C10.326 33.2641 9.79558 34.1405 9.52846 35.1099C9.26133 36.0793 9.26791 37.1037 9.54745 38.0696C9.827 39.0355 10.3686 39.905 11.1122 40.5819C11.8558 41.2588 12.7723 41.7165 13.7601 41.9042C14.7479 42.092 15.7685 42.0025 16.7085 41.6457C17.6486 41.2889 18.4715 40.6787 19.0859 39.8828C19.7004 39.0868 20.0824 38.1363 20.1896 37.1365C20.2968 36.1367 20.125 35.1268 19.6932 34.2187H28.524C28.176 34.9471 27.996 35.7444 27.9971 36.5517C27.9971 37.6284 28.3164 38.681 28.9145 39.5762C29.5127 40.4714 30.3629 41.1692 31.3577 41.5812C32.3524 41.9933 33.447 42.1011 34.503 41.891C35.559 41.681 36.529 41.1625 37.2904 40.4011C38.0517 39.6398 38.5702 38.6698 38.7802 37.6138C38.9903 36.5578 38.8825 35.4632 38.4705 34.4685C38.0584 33.4737 37.3607 32.6235 36.4654 32.0253C35.5702 31.4271 34.5177 31.1079 33.441 31.1079H14.6149C14.2506 31.1078 13.8979 30.9799 13.6183 30.7465C13.3387 30.5131 13.1499 30.1889 13.0848 29.8305L12.4684 26.4417H35.0216C36.1144 26.4415 37.1724 26.0579 38.0113 25.3576C38.8502 24.6573 39.4167 23.6847 39.612 22.6096L41.9762 9.61039C42.0162 9.38571 42.0063 9.15498 41.9472 8.93456C41.888 8.71414 41.7811 8.50943 41.634 8.33496ZM17.1093 36.5517C17.1093 37.0132 16.9725 37.4643 16.7161 37.8479C16.4598 38.2316 16.0954 38.5307 15.6691 38.7072C15.2428 38.8838 14.7737 38.93 14.3211 38.84C13.8685 38.75 13.4528 38.5278 13.1265 38.2015C12.8002 37.8752 12.578 37.4595 12.488 37.0069C12.398 36.5543 12.4442 36.0852 12.6207 35.6589C12.7973 35.2326 13.0964 34.8682 13.48 34.6119C13.8637 34.3555 14.3148 34.2187 14.7762 34.2187C15.395 34.2187 15.9884 34.4645 16.426 34.902C16.8635 35.3395 17.1093 35.933 17.1093 36.5517ZM35.7741 36.5517C35.7741 37.0132 35.6372 37.4643 35.3809 37.8479C35.1245 38.2316 34.7601 38.5307 34.3338 38.7072C33.9075 38.8838 33.4384 38.93 32.9858 38.84C32.5332 38.75 32.1175 38.5278 31.7912 38.2015C31.4649 37.8752 31.2427 37.4595 31.1527 37.0069C31.0627 36.5543 31.1089 36.0852 31.2855 35.6589C31.4621 35.2326 31.7611 34.8682 32.1448 34.6119C32.5284 34.3555 32.9795 34.2187 33.441 34.2187C34.0597 34.2187 34.6532 34.4645 35.0907 34.902C35.5282 35.3395 35.7741 35.933 35.7741 36.5517ZM36.5518 22.0535C36.4865 22.4129 36.2968 22.7378 36.016 22.9714C35.7351 23.2049 35.3811 23.3322 35.0158 23.3309H11.9027L9.6415 10.8878H38.5757L36.5518 22.0535Z" fill="#F28705"/>
</svg>
