<svg width="18" height="19" viewBox="0 0 18 19" fill="none" xmlns="http://www.w3.org/2000/svg">
<path d="M16.5625 2.94897H1.4375C1.25516 2.94897 1.0803 3.02141 0.951364 3.15034C0.822433 3.27927 0.75 3.45414 0.75 3.63647C0.75 3.81881 0.822433 3.99368 0.951364 4.12261C1.0803 4.25154 1.25516 4.32397 1.4375 4.32397H2.125V16.699C2.125 17.0636 2.26987 17.4134 2.52773 17.6712C2.78559 17.9291 3.13533 18.074 3.5 18.074H14.5C14.8647 18.074 15.2144 17.9291 15.4723 17.6712C15.7301 17.4134 15.875 17.0636 15.875 16.699V4.32397H16.5625C16.7448 4.32397 16.9197 4.25154 17.0486 4.12261C17.1776 3.99368 17.25 3.81881 17.25 3.63647C17.25 3.45414 17.1776 3.27927 17.0486 3.15034C16.9197 3.02141 16.7448 2.94897 16.5625 2.94897ZM14.5 16.699H3.5V4.32397H14.5V16.699ZM4.875 0.886475C4.875 0.704138 4.94743 0.52927 5.07636 0.400339C5.2053 0.271407 5.38016 0.198975 5.5625 0.198975H12.4375C12.6198 0.198975 12.7947 0.271407 12.9236 0.400339C13.0526 0.52927 13.125 0.704138 13.125 0.886475C13.125 1.06881 13.0526 1.24368 12.9236 1.37261C12.7947 1.50154 12.6198 1.57397 12.4375 1.57397H5.5625C5.38016 1.57397 5.2053 1.50154 5.07636 1.37261C4.94743 1.24368 4.875 1.06881 4.875 0.886475Z" fill="#734A27"/>
</svg>
