<svg width="18" height="19" viewBox="0 0 18 19" fill="none" xmlns="http://www.w3.org/2000/svg">
<path d="M17.5345 5.12922L13.6948 1.28867C13.5671 1.16096 13.4155 1.05965 13.2487 0.990529C13.0818 0.92141 12.903 0.885834 12.7224 0.885834C12.5418 0.885834 12.363 0.92141 12.1961 0.990529C12.0293 1.05965 11.8777 1.16096 11.75 1.28867L1.15305 11.8865C1.02482 12.0137 0.923148 12.1651 0.853956 12.332C0.784764 12.4989 0.74943 12.6778 0.750007 12.8584V16.699C0.750007 17.0637 0.894873 17.4134 1.15274 17.6713C1.4106 17.9291 1.76033 18.074 2.12501 18.074H5.96555C6.14619 18.0746 6.32513 18.0392 6.49199 17.97C6.65885 17.9008 6.81029 17.7992 6.93751 17.6709L17.5345 7.07399C17.6622 6.9463 17.7635 6.79471 17.8326 6.62786C17.9017 6.46102 17.9373 6.2822 17.9373 6.1016C17.9373 5.92101 17.9017 5.74218 17.8326 5.57534C17.7635 5.4085 17.6622 5.2569 17.5345 5.12922ZM5.96555 16.699H2.12501V12.8584L9.68751 5.29594L13.5281 9.13649L5.96555 16.699ZM14.5 8.16367L10.6595 4.32399L12.722 2.26149L16.5625 6.10117L14.5 8.16367Z" fill="#734A27"/>
</svg>
